#define Sort_both_small_width 8
#define Sort_both_small_height 9
static char Sort_both_small_bits[] = {
  0x18, 0x3C, 0x7E, 0xFF, 0x00, 0xFF, 0x7E, 0x3C, 0x18, };
