#define Sort_up_small_width 8
#define Sort_up_small_height 9
static char Sort_up_small_bits[] = {
  0x18, 0x3C, 0x7E, 0xFF, 0x00, 0x00, 0x00, 0x00, 0x00, };
